<svg width="84" height="30" viewBox="0 0 84 30" fill="none" xmlns="http://www.w3.org/2000/svg">
<path d="M0.585786 13.5858C-0.195262 14.3668 -0.195262 15.6332 0.585787 16.4142L13.3137 29.1421C14.0948 29.9232 15.3611 29.9232 16.1421 29.1421C16.9232 28.3611 16.9232 27.0948 16.1421 26.3137L4.82843 15L16.1421 3.68629C16.9232 2.90524 16.9232 1.63891 16.1421 0.857863C15.3611 0.0768144 14.0948 0.0768145 13.3137 0.857863L0.585786 13.5858ZM82 17C83.1046 17 84 16.1046 84 15C84 13.8954 83.1046 13 82 13L82 17ZM2 17L82 17L82 13L2 13L2 17Z" fill="#0B2951"/>
</svg>
