<svg width="114" height="20" viewBox="0 0 114 20" fill="none" xmlns="http://www.w3.org/2000/svg">
<g opacity="0.8">
<path d="M23.0082 5.58362C18.8669 5.58362 15.631 8.67117 15.631 12.8045C15.631 16.9379 18.7851 19.999 23.0082 19.999C27.2313 19.999 30.4403 16.885 30.4403 12.7781C30.4403 8.6976 27.2862 5.58362 23.0082 5.58362ZM23.0361 17.0202C20.6778 17.0202 18.9496 15.2213 18.9496 12.8055C18.9496 10.3623 20.6498 8.56446 23.0082 8.56446C25.3945 8.56446 27.1216 10.3898 27.1216 12.8055C27.1216 15.2213 25.3945 17.0202 23.0361 17.0202ZM31.3447 8.72504H33.4019V19.7317H36.6927V5.85192H31.3447V8.72504ZM7.3493 8.56344C9.07745 8.56344 10.4486 9.61024 10.9691 11.1672H14.4523C13.8211 7.83881 11.0239 5.58362 7.37724 5.58362C3.23588 5.58362 0 8.67117 0 12.8055C0 16.9399 3.15413 20 7.37724 20C10.9422 20 13.7942 17.7448 14.4254 14.3889H10.9691C10.4755 15.9459 9.10435 17.0202 7.3762 17.0202C4.98991 17.0202 3.31764 15.2213 3.31764 12.8055C3.31867 10.3623 4.96404 8.56344 7.3493 8.56344ZM93.8707 11.463L91.4575 11.1144C90.3057 10.9538 89.483 10.5778 89.483 9.69155C89.483 8.72504 90.553 8.24229 92.0059 8.24229C93.5964 8.24229 94.6116 8.91305 94.831 10.0137H98.012C97.655 7.22191 95.4612 5.58463 92.0887 5.58463C88.6055 5.58463 86.302 7.32964 86.302 9.79928C86.302 12.1612 87.8108 13.5312 90.8542 13.9601L93.2674 14.3087C94.4471 14.4692 95.1052 14.9266 95.1052 15.7854C95.1052 16.886 93.9534 17.3423 92.3629 17.3423C90.4154 17.3423 89.3185 16.5639 89.154 15.3829H85.9181C86.2202 18.0944 88.3861 20 92.335 20C95.9279 20 98.3131 18.3891 98.3131 15.6238C98.3131 13.1541 96.586 11.8654 93.8707 11.463ZM35.0473 0.134153C33.8407 0.134153 32.9352 0.992937 32.9352 2.17389C32.9352 3.35485 33.8397 4.21363 35.0473 4.21363C36.2539 4.21363 37.1594 3.35485 37.1594 2.17389C37.1594 0.992937 36.2539 0.134153 35.0473 0.134153ZM83.3403 10.6042C83.3403 7.59795 81.4756 5.58463 77.5267 5.58463C73.7972 5.58463 71.7131 7.43737 71.3012 10.283H74.565C74.7296 9.18238 75.6071 8.26973 77.4719 8.26973C79.1452 8.26973 79.9678 8.99436 79.9678 9.88058C79.9678 11.0351 78.4591 11.3298 76.5943 11.5179C74.0714 11.7862 70.9453 12.645 70.9453 15.8667C70.9453 18.3637 72.8379 19.9736 75.8544 19.9736C78.2128 19.9736 79.6936 19.0071 80.4346 17.4765C80.5442 18.8455 81.5863 19.7317 83.0402 19.7317H84.9598V16.8596H83.3414V10.6042H83.3403ZM80.1044 14.0942C80.1044 15.9469 78.4591 17.3159 76.4567 17.3159C75.2222 17.3159 74.1801 16.8057 74.1801 15.7325C74.1801 14.3635 75.8534 13.9875 77.3891 13.8269C78.8699 13.6928 79.6926 13.3706 80.1044 12.7527V14.0942ZM62.6356 5.58362C60.7978 5.58362 59.2621 6.33569 58.1652 7.59693V0H54.8745V19.7317H58.1104V17.9064C59.2073 19.2215 60.7709 20 62.6356 20C66.5845 20 69.5741 16.9399 69.5741 12.8055C69.5741 8.67117 66.5297 5.58362 62.6356 5.58362ZM62.142 17.0202C59.7837 17.0202 58.0555 15.2213 58.0555 12.8055C58.0555 10.3898 59.8106 8.56446 62.1689 8.56446C64.5552 8.56446 66.2275 10.3633 66.2275 12.8055C66.2275 15.2213 64.5004 17.0202 62.142 17.0202ZM47.0036 5.58362C44.8647 5.58362 43.4656 6.4424 42.6429 7.6508V5.85192H39.3791V19.7307H42.6698V12.1876C42.6698 10.0666 44.0409 8.56344 46.0702 8.56344C47.9629 8.56344 49.1416 9.87855 49.1416 11.7852V19.7317H52.4323V11.5443C52.4333 8.05325 50.5965 5.58362 47.0036 5.58362ZM114 12.3492C114 8.37644 111.038 5.58463 107.062 5.58463C102.838 5.58463 99.7391 8.69861 99.7391 12.8055C99.7391 17.1279 103.058 20 107.116 20C110.545 20 113.232 18.0131 113.917 15.1949H110.489C109.995 16.4297 108.789 17.1279 107.17 17.1279C105.058 17.1279 103.468 15.8392 103.112 13.584H113.999V12.3492H114ZM103.304 11.275C103.826 9.34194 105.306 8.40287 107.007 8.40287C108.871 8.40287 110.297 9.44967 110.626 11.275H103.304Z" fill="#222D44"/>
</g>
</svg>
