<svg width="100" height="23" viewBox="0 0 100 23" fill="none" xmlns="http://www.w3.org/2000/svg">
<path d="M7.576 0.959999C9.08 0.959999 10.392 1.256 11.512 1.848C12.632 2.44 13.496 3.32 14.104 4.488C14.728 5.64 15.04 7.04 15.04 8.688V18H11.92V13.68H3.184V18H0.112V8.688C0.112 7.04 0.416 5.64 1.024 4.488C1.648 3.32 2.52 2.44 3.64 1.848C4.76 1.256 6.072 0.959999 7.576 0.959999ZM11.92 11.064V8.4C11.92 6.848 11.536 5.68 10.768 4.896C10 4.096 8.928 3.696 7.552 3.696C6.176 3.696 5.104 4.096 4.336 4.896C3.568 5.68 3.184 6.848 3.184 8.4V11.064H11.92ZM21.9724 7.056C22.8364 5.712 24.3564 5.04 26.5324 5.04V7.896C26.2764 7.848 26.0444 7.824 25.8364 7.824C24.6684 7.824 23.7564 8.168 23.1004 8.856C22.4444 9.528 22.1164 10.504 22.1164 11.784V18H19.1164V5.184H21.9724V7.056ZM36.2774 17.304C35.9254 17.592 35.4934 17.808 34.9814 17.952C34.4854 18.096 33.9574 18.168 33.3974 18.168C31.9894 18.168 30.9014 17.8 30.1334 17.064C29.3654 16.328 28.9814 15.256 28.9814 13.848V2.352H31.9814V5.28H35.4134V7.68H31.9814V13.776C31.9814 14.4 32.1334 14.88 32.4374 15.216C32.7574 15.536 33.1974 15.696 33.7574 15.696C34.4294 15.696 34.9894 15.52 35.4374 15.168L36.2774 17.304ZM44.2531 18.24C42.9571 18.24 41.7011 18.056 40.4851 17.688C39.2851 17.32 38.3331 16.832 37.6291 16.224L38.7091 13.8C39.3971 14.344 40.2371 14.792 41.2291 15.144C42.2371 15.48 43.2451 15.648 44.2531 15.648C45.5011 15.648 46.4291 15.448 47.0371 15.048C47.6611 14.648 47.9731 14.12 47.9731 13.464C47.9731 12.984 47.7971 12.592 47.4451 12.288C47.1091 11.968 46.6771 11.72 46.1491 11.544C45.6211 11.368 44.9011 11.168 43.9891 10.944C42.7091 10.64 41.6691 10.336 40.8691 10.032C40.0851 9.728 39.4051 9.256 38.8291 8.616C38.2691 7.96 37.9891 7.08 37.9891 5.976C37.9891 5.048 38.2371 4.208 38.7331 3.456C39.2451 2.688 40.0051 2.08 41.0131 1.632C42.0371 1.184 43.2851 0.959999 44.7571 0.959999C45.7811 0.959999 46.7891 1.088 47.7811 1.344C48.7731 1.6 49.6291 1.968 50.3491 2.448L49.3651 4.872C48.6291 4.44 47.8611 4.112 47.0611 3.888C46.2611 3.664 45.4851 3.552 44.7331 3.552C43.5011 3.552 42.5811 3.76 41.9731 4.176C41.3811 4.592 41.0851 5.144 41.0851 5.832C41.0851 6.312 41.2531 6.704 41.5891 7.008C41.9411 7.312 42.3811 7.552 42.9091 7.728C43.4371 7.904 44.1571 8.104 45.0691 8.328C46.3171 8.616 47.3411 8.92 48.1411 9.24C48.9411 9.544 49.6211 10.016 50.1811 10.656C50.7571 11.296 51.0451 12.16 51.0451 13.248C51.0451 14.176 50.7891 15.016 50.2771 15.768C49.7811 16.52 49.0211 17.12 47.9971 17.568C46.9731 18.016 45.7251 18.24 44.2531 18.24ZM61.0508 17.304C60.6988 17.592 60.2668 17.808 59.7548 17.952C59.2588 18.096 58.7308 18.168 58.1708 18.168C56.7628 18.168 55.6748 17.8 54.9068 17.064C54.1388 16.328 53.7548 15.256 53.7548 13.848V2.352H56.7548V5.28H60.1868V7.68H56.7548V13.776C56.7548 14.4 56.9068 14.88 57.2108 15.216C57.5308 15.536 57.9708 15.696 58.5308 15.696C59.2028 15.696 59.7628 15.52 60.2108 15.168L61.0508 17.304ZM75.9385 5.184V16.056C75.9385 20.568 73.7225 22.824 69.2905 22.824C68.1225 22.824 67.0025 22.664 65.9305 22.344C64.8745 22.04 64.0025 21.592 63.3145 21L64.6585 18.744C65.2025 19.208 65.8665 19.576 66.6505 19.848C67.4345 20.12 68.2585 20.256 69.1225 20.256C70.4345 20.256 71.3945 19.936 72.0025 19.296C72.6265 18.672 72.9385 17.704 72.9385 16.392V15.792C72.4585 16.32 71.8745 16.728 71.1865 17.016C70.4985 17.288 69.7545 17.424 68.9545 17.424C67.2425 17.424 65.8905 16.952 64.8985 16.008C63.9225 15.064 63.4345 13.648 63.4345 11.76V5.184H66.4345V11.376C66.4345 12.512 66.6905 13.368 67.2025 13.944C67.7305 14.504 68.4745 14.784 69.4345 14.784C70.5065 14.784 71.3545 14.456 71.9785 13.8C72.6185 13.144 72.9385 12.192 72.9385 10.944V5.184H75.9385ZM84.0904 18.168C82.7624 18.168 81.7224 17.808 80.9704 17.088C80.2344 16.352 79.8664 15.32 79.8664 13.992V0.191999H82.8664V13.776C82.8664 15.056 83.4664 15.696 84.6664 15.696C85.0664 15.696 85.4264 15.616 85.7464 15.456L85.8904 17.856C85.3304 18.064 84.7304 18.168 84.0904 18.168ZM93.7906 15.624C95.1826 15.624 96.3426 15.16 97.2706 14.232L98.8546 16.08C98.2946 16.768 97.5746 17.288 96.6946 17.64C95.8146 17.992 94.8226 18.168 93.7186 18.168C92.3106 18.168 91.0706 17.888 89.9986 17.328C88.9266 16.768 88.0946 15.992 87.5026 15C86.9266 13.992 86.6386 12.856 86.6386 11.592C86.6386 10.344 86.9186 9.224 87.4786 8.232C88.0546 7.224 88.8386 6.44 89.8306 5.88C90.8386 5.32 91.9746 5.04 93.2386 5.04C94.4386 5.04 95.5266 5.304 96.5026 5.832C97.4946 6.344 98.2786 7.088 98.8546 8.064C99.4306 9.024 99.7186 10.152 99.7186 11.448L89.9026 13.368C90.2066 14.104 90.6946 14.664 91.3666 15.048C92.0386 15.432 92.8466 15.624 93.7906 15.624ZM93.2386 7.44C92.1346 7.44 91.2386 7.8 90.5506 8.52C89.8786 9.24 89.5426 10.208 89.5426 11.424V11.448L96.7906 10.056C96.5826 9.272 96.1586 8.64 95.5186 8.16C94.8946 7.68 94.1346 7.44 93.2386 7.44Z" fill="#0C2A52"/>
</svg>
