<svg width="18" height="18" viewBox="0 0 18 18" fill="none" xmlns="http://www.w3.org/2000/svg">
<path d="M17.5909 9.65831C17.9206 9.28135 17.9206 8.71865 17.5909 8.34169L16.4157 6.9979C16.2354 6.79172 16.1476 6.52059 16.1727 6.24784L16.3362 4.47277C16.3823 3.97327 16.0511 3.51697 15.562 3.40586L13.8287 3.01214C13.5604 2.9512 13.329 2.78242 13.1891 2.54553L12.2807 1.0074C12.0249 0.574319 11.4872 0.39862 11.0251 0.59708L9.39457 1.29723C9.14264 1.40541 8.85735 1.40541 8.60543 1.29723L6.97382 0.5966C6.51213 0.398347 5.97502 0.573459 5.71891 1.00574L4.81176 2.53685C4.6713 2.77393 4.43923 2.94254 4.17036 3.00287L2.4406 3.39098C1.95027 3.501 1.61774 3.95782 1.66373 4.45823L1.82752 6.24069C1.85252 6.51275 1.76512 6.7832 1.58563 6.98917L0.406867 8.34185C0.0783034 8.71889 0.0788015 9.28068 0.408033 9.65714L1.58436 11.0022C1.76463 11.2083 1.85248 11.4793 1.82743 11.752L1.66351 13.5358C1.61762 14.0352 1.94875 14.4913 2.43781 14.6024L4.17213 14.9964C4.43995 15.0572 4.67097 15.2255 4.81096 15.4618L5.71779 16.9924C5.97438 17.4255 6.51291 17.6003 6.97497 17.4005L8.6045 16.696C8.85695 16.5868 9.1432 16.5865 9.39592 16.695L11.0262 17.3951C11.4879 17.5933 12.025 17.4182 12.2811 16.9859L13.189 15.4535C13.329 15.2172 13.56 15.0489 13.8279 14.988L15.562 14.5941C16.0511 14.483 16.3823 14.0267 16.3362 13.5272L16.1727 11.7522C16.1476 11.4794 16.2354 11.2083 16.4157 11.0021L17.5909 9.65831ZM6.81666 12.3417L4.83333 10.3417C4.75608 10.2646 4.69479 10.173 4.65297 10.0722C4.61115 9.97138 4.58963 9.86331 4.58963 9.75417C4.58963 9.64503 4.61115 9.53696 4.65297 9.43615C4.69479 9.33533 4.75608 9.24376 4.83333 9.16667L4.89166 9.10833C5.21666 8.78333 5.75 8.78333 6.075 9.10833L7.41667 10.4583L11.7083 6.15833C12.0333 5.83333 12.5667 5.83333 12.8917 6.15833L12.95 6.21667C13.275 6.54167 13.275 7.06667 12.95 7.39167L8.01666 12.3417C7.675 12.6667 7.15 12.6667 6.81666 12.3417Z" fill="#3385FF"/>
</svg>
